<svg id="Layer_1" data-name="Layer 1" xmlns="http://www.w3.org/2000/svg" viewBox="0 0 410.13 449.26"><defs><style>.cls-1{fill:#9f802e;}</style></defs><title>Sports Website old logo</title><path class="cls-1" d="M524.25,245.65c-7.55-16.92-44.43-26.46-44.43-26.46l-13-2.24-6.53-1.12s13.43-33.6,7.92-55.92-30.65-26.76-30.65-26.76c-22.48-3.06-42.27,14-42.27,14h0L314.44,92.47A288.56,288.56,0,0,0,233.6,146s5,10.38-2,0c-5.92-8.76-35.42-21-54.15-9.24C161,147,160.33,171,160.09,179.56c0,0-.17,63.73,72.31,110.76,1.79,1.31,3.84,2.69,6.1,4.08-1.82-1.15-3.5-2.3-5-3.38q6.61,4.23,14.05,8.27l.12.06L270.3,348l1-.6,2.16-2.52s34.18-50.16,37.14-53.52,2.8-30.6,2.8-30.6c-9.84-13.08-3.36-30.54-1.92-32.34s-5.34-13.68-5.34-13.68c.3-3.06-15.77-18.84-17.15-20.46s-4.08-9.12-4.38-11,1.74-10.56,1.74-10.56,5.58-3.9,3.72-4.44-4-4.74-4-4.74c0-1,5.64-4.62,5.64-4.62l-9.95-9.72-6.84.66-33,26s-7.08,4.44-5.94,5.58,2.46,5.94,3.54,7.38.12,6.6-1.08,7.32-7.07.84-10,.36a8.92,8.92,0,0,1-3.93-1.61c-.14-.1-.24-.19-.31-.25l-.11-.09a18,18,0,0,0,.18,1.94v.21s.24,1.32.61,3.42a.13.13,0,0,0,0,.06c1,5.87,3.11,17.74,4.16,24.4,0,0,0,.05,0,.08.65,4.14,1.1,7.35,1.1,8.43,0,3.87,5.76,27.81,5.76,27.81l2.14,6.56s0,0,0,0l2.09,6.39,3,10-1.56-.6c-9.35-3-19.48-12.79-23.91-16.56h0a11.73,11.73,0,0,0-1.88-1.43c-2.4-1.2-17.88-19-17.88-19s-2.72-4.4-5.89-9.74h0a1.29,1.29,0,0,1-.09-.16h0c-3.37-5.66-7.22-12.32-8.88-15.88-3.25-7-6.82-14.07-9.24-24.24q-.86-3.62-1.36-6.83s0,0,0,0a74.16,74.16,0,0,1-.8-18c.67-8.24,1.18-13.61,5.4-18.12,4.8-5.13,12.12-6.71,13.44-7a30.53,30.53,0,0,1,4.14-.5l.63,0a23.47,23.47,0,0,1,2.94.1l.44,0c.36.05.55.11.55.22h0c3.12.25,6,1.12,9.85,1.84,6.45,1.23,13,5.86,13.93,6.51l0,0a1.07,1.07,0,0,0,.23.05l.09,6.65.27,21.27.4-.79.08-.17.07-.24.29-1,.6-1.32.72-1.56,1.08-1.2,1.08-.48,1.44.24,1.91.12h4.8l26.26-20.62,4.92-4.08,5.27-4.92,1.2-1.2,1.2-1.32,1.08-1.07.84-1.2.6-1,.84-1.32.12-1,1.44-2,.48-1.56.6-1.56.72-1.2,1.43-2.51,1.44-2.16,1.8-1.32,3-1.44,3.12-1.56H296l3.48.6.84.12,1.2.36.84.48,1.56.6,1.2.6,1.08.12,1.08-1,1.8-.6,1.74-.36,1.14-1h1.8l1.44,1.08,1.56.36.36,1.56.6,1.56-1.08,2.52-1.68,1.08-1.92,1.2-2.08,1.08-1.64.24v1l-.12,1.2,1.62.36.66,1.08,1.8.72.12,1.08.6,2.16,2.28.84,1.92-.12,2.76.48,1.92-.12,1.32.36,1.8.12.12,1.8,2.16.36,1.44,2,5.16.72,2.76,2.52L338,156l-1.68,3.72-7.92,7.32,5.16,6.48s6.6,17.76,6.84,18.24,4,16.44,4,16.44l6.6,12.72,2.52,17.4,8.64,15.36,1,54-1,32.88,9.65-21.19h0l8.59-18.88s4.32-2.16,9.36-4.8,23.76-14.4,25.92-16.32c.78-.69,4.09-4.05,8-8.06,4.53-4.64,9.89-10.15,13.11-13.46l.05-.06,2.81-2.9c.67-1,1.43-2.16,2.28-3.54,0,0,0,0,0,0,6.79-11.08,18.35-33.64,18.35-33.64l.61.08A62,62,0,0,1,478.21,223l0,0a55.8,55.8,0,0,1,14,9.46.23.23,0,0,1,.07.07,55.86,55.86,0,0,1,10.47,13.3c.2.38.39.76.57,1.15s.23.5.34.75.25.56.37.85A38.06,38.06,0,0,1,507,269.09a0,0,0,0,1,0,0c-.85,5.73-3,9.77-6.9,17.23A147,147,0,0,1,486,308c-.86,1.84-11.79,12.89-17.5,19a.17.17,0,0,0-.06.06c-1.52,1.6-2.65,2.84-3.14,3.48-.77,1-5.43,4.72-11.32,9.25l-.09.07c-6.59,5-14.71,11.1-20.63,15.48l0,0c-4.75,3.52-8.08,6-8.08,6L419,364.71h0l-39.45,22.07,0,0-1.26.71-1.71.7,0,0-42.38,17.5-2.81,1.4V383.55l3.55-3.83,5.45-5.89V320.37c.14,0-.4-18.9-1.48-23.76s-2.88-4-2.88-4l-9.6,19c-17.28,19.92-24,45.36-30.24,46.56s-11.28,12.24-11.28,12.24l13.92,15.84-4.32,31.44s-24,6.48-42.72,9.36-54.24,3.84-54.24,3.84L186,433h7.27c22.78-.26,37.41-.16,46.83,0,1.36,0,3.58.06,6.6,0,13.77-.29,23.9-3.18,31.12-3.78,4.32-.36,44.79-9.36,53.61-12.24s59.9-21.78,59.9-21.78c24.29-10.62,66.2-37.62,66.2-37.62,10.08-6.12,34.72-26.82,49.29-42.3S529.11,273,529.11,273,531.81,262.57,524.25,245.65Zm-135.53,31.7.12-1.82,7.58-118.1s41.2-30.1,56.82-3.65S435.35,262.62,388.72,277.35Z" transform="translate(-119.46 -39.03)"/><path class="cls-1" d="M239.64,332.88s-172.8,101.17-49,149.65l18.24,5.76-19.68-1.92s-49-6.24-66.72-36,44.64-101.28,109.44-131Z" transform="translate(-119.46 -39.03)"/><circle class="cls-1" cx="366.33" cy="11.5" r="11.5"/><path class="cls-1" d="M524.25,245.65c-7.55-16.92-44.43-26.46-44.43-26.46l-13-2.24-6.53-1.12s13.43-33.6,7.92-55.92-30.65-26.76-30.65-26.76c-22.48-3.06-42.27,14-42.27,14h0L314.44,92.47A288.56,288.56,0,0,0,233.6,146s5,10.38-2,0c-5.92-8.76-35.42-21-54.15-9.24C161,147,160.33,171,160.09,179.56c0,0-.17,63.73,72.31,110.76,1.79,1.31,3.84,2.69,6.1,4.08-1.82-1.15-3.5-2.3-5-3.38q6.61,4.23,14.05,8.27l.12.06L270.3,348l1-.6,2.16-2.52s34.18-50.16,37.14-53.52,2.8-30.6,2.8-30.6c-9.84-13.08-3.36-30.54-1.92-32.34s-5.34-13.68-5.34-13.68c.3-3.06-15.77-18.84-17.15-20.46s-4.08-9.12-4.38-11,1.74-10.56,1.74-10.56,5.58-3.9,3.72-4.44-4-4.74-4-4.74c0-1,5.64-4.62,5.64-4.62l-9.95-9.72-6.84.66-33,26s-7.08,4.44-5.94,5.58,2.46,5.94,3.54,7.38.12,6.6-1.08,7.32-7.07.84-10,.36a8.92,8.92,0,0,1-3.93-1.61c-.14-.1-.24-.19-.31-.25l-.11-.09a18,18,0,0,0,.18,1.94v.21s.24,1.32.61,3.42a.13.13,0,0,0,0,.06c1,5.87,3.11,17.74,4.16,24.4,0,0,0,.05,0,.08.65,4.14,1.1,7.35,1.1,8.43,0,3.87,5.76,27.81,5.76,27.81l2.14,6.56s0,0,0,0l2.09,6.39,3,10-1.56-.6c-9.35-3-19.48-12.79-23.91-16.56h0a11.73,11.73,0,0,0-1.88-1.43c-2.4-1.2-17.88-19-17.88-19s-2.72-4.4-5.89-9.74h0a1.29,1.29,0,0,1-.09-.16h0c-3.37-5.66-7.22-12.32-8.88-15.88-3.25-7-6.82-14.07-9.24-24.24q-.86-3.62-1.36-6.83s0,0,0,0a74.16,74.16,0,0,1-.8-18c.67-8.24,1.18-13.61,5.4-18.12,4.8-5.13,12.12-6.71,13.44-7a30.53,30.53,0,0,1,4.14-.5l.63,0a23.47,23.47,0,0,1,2.94.1l.44,0c.36.05.55.11.55.22h0c3.12.25,6,1.12,9.85,1.84,6.45,1.23,13,5.86,13.93,6.51l0,0a1.07,1.07,0,0,0,.23.05l.09,6.65.27,21.27.4-.79.08-.17.07-.24.29-1,.6-1.32.72-1.56,1.08-1.2,1.08-.48,1.44.24,1.91.12h4.8l26.26-20.62,4.92-4.08,5.27-4.92,1.2-1.2,1.2-1.32,1.08-1.07.84-1.2.6-1,.84-1.32.12-1,1.44-2,.48-1.56.6-1.56.72-1.2,1.43-2.51,1.44-2.16,1.8-1.32,3-1.44,3.12-1.56H296l3.48.6.84.12,1.2.36.84.48,1.56.6,1.2.6,1.08.12,1.08-1,1.8-.6,1.74-.36,1.14-1h1.8l1.44,1.08,1.56.36.36,1.56.6,1.56-1.08,2.52-1.68,1.08-1.92,1.2-2.08,1.08-1.64.24v1l-.12,1.2,1.62.36.66,1.08,1.8.72.12,1.08.6,2.16,2.28.84,1.92-.12,2.76.48,1.92-.12,1.32.36,1.8.12.12,1.8,2.16.36,1.44,2,5.16.72,2.76,2.52L338,156l-1.68,3.72-7.92,7.32,5.16,6.48s6.6,17.76,6.84,18.24,4,16.44,4,16.44l6.6,12.72,2.52,17.4,8.64,15.36,1,54-1,32.88,9.65-21.19h0l8.59-18.88s4.32-2.16,9.36-4.8,23.76-14.4,25.92-16.32c.78-.69,4.09-4.05,8-8.06,4.53-4.64,9.89-10.15,13.11-13.46l.05-.06,2.81-2.9c.67-1,1.43-2.16,2.28-3.54,0,0,0,0,0,0,6.79-11.08,18.35-33.64,18.35-33.64l.61.08A62,62,0,0,1,478.21,223l0,0a55.8,55.8,0,0,1,14,9.46.23.23,0,0,1,.07.07,55.86,55.86,0,0,1,10.47,13.3c.2.38.39.76.57,1.15s.23.5.34.75.25.56.37.85A38.06,38.06,0,0,1,507,269.09a0,0,0,0,1,0,0c-.85,5.73-3,9.77-6.9,17.23A147,147,0,0,1,486,308c-.86,1.84-11.79,12.89-17.5,19a.17.17,0,0,0-.06.06c-1.52,1.6-2.65,2.84-3.14,3.48-.77,1-5.43,4.72-11.32,9.25l-.09.07c-6.59,5-14.71,11.1-20.63,15.48l0,0c-4.75,3.52-8.08,6-8.08,6L419,364.71h0l-39.45,22.07,0,0-1.26.71-1.71.7,0,0-42.38,17.5-2.81,1.4V383.55l3.55-3.83,5.45-5.89V320.37c.14,0-.4-18.9-1.48-23.76s-2.88-4-2.88-4l-9.6,19c-17.28,19.92-24,45.36-30.24,46.56s-11.28,12.24-11.28,12.24l13.92,15.84-4.32,31.44s-24,6.48-42.72,9.36-54.24,3.84-54.24,3.84L186,433h7.27c22.78-.26,37.41-.16,46.83,0,1.36,0,3.58.06,6.6,0,13.77-.29,23.9-3.18,31.12-3.78,4.32-.36,44.79-9.36,53.61-12.24s59.9-21.78,59.9-21.78c24.29-10.62,66.2-37.62,66.2-37.62,10.08-6.12,34.72-26.82,49.29-42.3S529.11,273,529.11,273,531.81,262.57,524.25,245.65Zm-135.53,31.7.12-1.82,7.58-118.1s41.2-30.1,56.82-3.65S435.35,262.62,388.72,277.35Z" transform="translate(-119.46 -39.03)"/><polygon class="cls-1" points="166.55 404.2 161.03 415 227.99 415 219.35 392.44 166.55 404.2"/><polygon class="cls-1" points="141.65 431 136.33 449 253.64 449 248.32 431 142.86 431 141.65 431"/><path class="cls-1" d="M239.64,332.88s-172.8,101.17-49,149.65l18.24,5.76-19.68-1.92s-49-6.24-66.72-36,44.64-101.28,109.44-131Z" transform="translate(-119.46 -39.03)"/><circle class="cls-1" cx="366.33" cy="11.5" r="11.5"/><path class="cls-1" d="M524.25,245.65c-7.55-16.92-44.43-26.46-44.43-26.46l-13-2.24-6.53-1.12s13.43-33.6,7.92-55.92-30.65-26.76-30.65-26.76c-22.48-3.06-42.27,14-42.27,14h0L314.44,92.47A288.56,288.56,0,0,0,233.6,146s5,10.38-2,0c-5.92-8.76-35.42-21-54.15-9.24C161,147,160.33,171,160.09,179.56c0,0-.17,63.73,72.31,110.76,1.79,1.31,3.84,2.69,6.1,4.08-1.82-1.15-3.5-2.3-5-3.38q6.61,4.23,14.05,8.27l.12.06L270.3,348l1-.6,2.16-2.52s34.18-50.16,37.14-53.52,2.8-30.6,2.8-30.6c-9.84-13.08-3.36-30.54-1.92-32.34s-5.34-13.68-5.34-13.68c.3-3.06-15.77-18.84-17.15-20.46s-4.08-9.12-4.38-11,1.74-10.56,1.74-10.56,5.58-3.9,3.72-4.44-4-4.74-4-4.74c0-1,5.64-4.62,5.64-4.62l-9.95-9.72-6.84.66-33,26s-7.08,4.44-5.94,5.58,2.46,5.94,3.54,7.38.12,6.6-1.08,7.32-7.07.84-10,.36a8.92,8.92,0,0,1-3.93-1.61c-.14-.1-.24-.19-.31-.25l-.11-.09a18,18,0,0,0,.18,1.94v.21s.24,1.32.61,3.42a.13.13,0,0,0,0,.06c1,5.87,3.11,17.74,4.16,24.4,0,0,0,.05,0,.08.65,4.14,1.1,7.35,1.1,8.43,0,3.87,5.76,27.81,5.76,27.81l2.14,6.56s0,0,0,0l2.09,6.39,3,10-1.56-.6c-9.35-3-19.48-12.79-23.91-16.56h0a11.73,11.73,0,0,0-1.88-1.43c-2.4-1.2-17.88-19-17.88-19s-2.72-4.4-5.89-9.74h0a1.29,1.29,0,0,1-.09-.16h0c-3.37-5.66-7.22-12.32-8.88-15.88-3.25-7-6.82-14.07-9.24-24.24q-.86-3.62-1.36-6.83s0,0,0,0a74.16,74.16,0,0,1-.8-18c.67-8.24,1.18-13.61,5.4-18.12,4.8-5.13,12.12-6.71,13.44-7a30.53,30.53,0,0,1,4.14-.5l.63,0a23.47,23.47,0,0,1,2.94.1l.44,0c.36.05.55.11.55.22h0c3.12.25,6,1.12,9.85,1.84,6.45,1.23,13,5.86,13.93,6.51l0,0a1.07,1.07,0,0,0,.23.05l.09,6.65.27,21.27.4-.79.08-.17.07-.24.29-1,.6-1.32.72-1.56,1.08-1.2,1.08-.48,1.44.24,1.91.12h4.8l26.26-20.62,4.92-4.08,5.27-4.92,1.2-1.2,1.2-1.32,1.08-1.07.84-1.2.6-1,.84-1.32.12-1,1.44-2,.48-1.56.6-1.56.72-1.2,1.43-2.51,1.44-2.16,1.8-1.32,3-1.44,3.12-1.56H296l3.48.6.84.12,1.2.36.84.48,1.56.6,1.2.6,1.08.12,1.08-1,1.8-.6,1.74-.36,1.14-1h1.8l1.44,1.08,1.56.36.36,1.56.6,1.56-1.08,2.52-1.68,1.08-1.92,1.2-2.08,1.08-1.64.24v1l-.12,1.2,1.62.36.66,1.08,1.8.72.12,1.08.6,2.16,2.28.84,1.92-.12,2.76.48,1.92-.12,1.32.36,1.8.12.12,1.8,2.16.36,1.44,2,5.16.72,2.76,2.52L338,156l-1.68,3.72-7.92,7.32,5.16,6.48s6.6,17.76,6.84,18.24,4,16.44,4,16.44l6.6,12.72,2.52,17.4,8.64,15.36,1,54-1,32.88,9.65-21.19h0l8.59-18.88s4.32-2.16,9.36-4.8,23.76-14.4,25.92-16.32c.78-.69,4.09-4.05,8-8.06,4.53-4.64,9.89-10.15,13.11-13.46l.05-.06,2.81-2.9c.67-1,1.43-2.16,2.28-3.54,0,0,0,0,0,0,6.79-11.08,18.35-33.64,18.35-33.64l.61.08A62,62,0,0,1,478.21,223l0,0a55.8,55.8,0,0,1,14,9.46.23.23,0,0,1,.07.07,55.86,55.86,0,0,1,10.47,13.3c.2.38.39.76.57,1.15s.23.5.34.75.25.56.37.85A38.06,38.06,0,0,1,507,269.09a0,0,0,0,1,0,0c-.85,5.73-3,9.77-6.9,17.23A147,147,0,0,1,486,308c-.86,1.84-11.79,12.89-17.5,19a.17.17,0,0,0-.06.06c-1.52,1.6-2.65,2.84-3.14,3.48-.77,1-5.43,4.72-11.32,9.25l-.09.07c-6.59,5-14.71,11.1-20.63,15.48l0,0c-4.75,3.52-8.08,6-8.08,6L419,364.71h0l-39.45,22.07,0,0-1.26.71-1.71.7,0,0-42.38,17.5-2.81,1.4V383.55l3.55-3.83,5.45-5.89V320.37c.14,0-.4-18.9-1.48-23.76s-2.88-4-2.88-4l-9.6,19c-17.28,19.92-24,45.36-30.24,46.56s-11.28,12.24-11.28,12.24l13.92,15.84-4.32,31.44s-24,6.48-42.72,9.36-54.24,3.84-54.24,3.84L186,433h7.27c22.78-.26,37.41-.16,46.83,0,1.36,0,3.58.06,6.6,0,13.77-.29,23.9-3.18,31.12-3.78,4.32-.36,44.79-9.36,53.61-12.24s59.9-21.78,59.9-21.78c24.29-10.62,66.2-37.62,66.2-37.62,10.08-6.12,34.72-26.82,49.29-42.3S529.11,273,529.11,273,531.81,262.57,524.25,245.65Zm-135.53,31.7.12-1.82,7.58-118.1s41.2-30.1,56.82-3.65S435.35,262.62,388.72,277.35Z" transform="translate(-119.46 -39.03)"/><polygon class="cls-1" points="166.55 404.2 161.03 415 227.99 415 219.35 392.44 166.55 404.2"/><polygon class="cls-1" points="141.65 431 136.33 449 253.64 449 248.32 431 142.86 431 141.65 431"/><polygon class="cls-1" points="242.31 67.32 243.25 66.83 337.83 17.4 337.83 21 242.31 67.32"/><polygon class="cls-1" points="291.19 56.52 347.83 27 347.83 31.08 291.19 56.52"/><path class="cls-1" d="M239.64,332.88s-172.8,101.17-49,149.65l18.24,5.76-19.68-1.92s-49-6.24-66.72-36,44.64-101.28,109.44-131Z" transform="translate(-119.46 -39.03)"/><circle class="cls-1" cx="366.33" cy="11.5" r="11.5"/></svg>